# xmcd
#
# Track frame offsets: 
#        150
#        13305
#        30112
#        42152
#        57287
#        69387
#        83512
#        101940
#        111515
#        127747
#
# Disc length: 1853 seconds
#
# Revision: 5
# Processed by: cddbd v1.5.2PL0 Copyright (c) Steve Scherf et al.
# Submitted via: ExactAudioCopy v0.99pb3
#
DISCID=79073b0a
DTITLE=Emmylou Harris - Light Of The Stable
DYEAR=1979
DGENRE=Christmas
TTITLE0=Christmas Times A Coming
TTITLE1=O Little Town Of Bethlehem
TTITLE2=Away In A Manger
TTITLE3=Angel Eyes
TTITLE4=The First Noel
TTITLE5=Beutiful Star Of Bethlehem
TTITLE6=Little Drummer Boy
TTITLE7=Golden Cradle
TTITLE8=Silent Night
TTITLE9=Light Of The Stable
EXTD=Warner Bros\n9 3484-2\nProduced by Brian Ahern
EXTT0=Harmony vocals - Sharon Hicks and Cheryl Warren
EXTT1=Harmony vocals - Sharon Hicks and Cheryl Warren
EXTT2=
EXTT3=Harmony vocals - Willie Nelson and Ricky Skaggs
EXTT4=Harmony vocals - Sharon Hicks and Cheryl Warren
EXTT5=Harmony vocals - Sharon Hicks, Cheryl Warren and Ricky Skaggs
EXTT6=Harmony vocals - Sharon Hicks and Cheryl Warren
EXTT7=
EXTT8=Harmony vocals - Sharon Hicks and Cheryl Warren
EXTT9=Harmony vocals - Neil Young, Dolly Parton and Linda Ronstadt
PLAYORDER=
